<?xml version="1.0" encoding="utf-8"?>
<!-- Generator: Adobe Illustrator 23.0.3, SVG Export Plug-In . SVG Version: 6.00 Build 0)  -->
<svg version="1.1" id="Layer_1" xmlns="http://www.w3.org/2000/svg" xmlns:xlink="http://www.w3.org/1999/xlink" x="0px" y="0px"
	 viewBox="0 0 1200.94 687.92" style="enable-background:new 0 0 1200.94 687.92;" xml:space="preserve">
<g>
	<path d="M1196.66,0.61c-117.77,0.02-235.54-0.08-353.32-0.08c-6.81,0-13.62,0.72-20.43,1.11c-2.23-1.82-4.96-1.63-7.54-1.63
		c-5.99,0.01-11.98,0.36-17.97,0.38c-32.15,0.1-64.3,0.13-96.45,0.22c-1.47,0-2.94,0.33-4.41,0.51c-1.66-0.06-3.32-0.18-4.98-0.19
		C617.32,0.9,543.08,0.84,468.84,0.87c-29.46,0.01-58.92,0.22-88.38,0.33c-1.54-0.89-3.25-0.58-4.89-0.58
		C320.91,0.61,266.25,0.56,211.6,0.64C164.42,0.7,121.72,14.46,84,43C31.45,82.75,3.25,135.77,0.5,201.4
		c-2.31,55.24,15.98,103.92,53,144.98c40.27,44.67,91.22,67.36,151.1,68.63c48.64,1.03,97.31,0.37,145.97,0.35
		c11.21,0,22.14,0.95,32.84,4.82c15.15,5.48,27.26,15.2,33.59,29.44c14.09,31.69,6.27,65.43-22.94,84.61
		c-5.48,3.6-10.64,8.52-17.42,9.23c-8.68,0.91-17.47,1.04-26.22,1.06c-70.99,0.16-141.99-0.82-212.95,0.66
		c-53.2,1.11-93.58,26.46-119.99,72.93C7.14,636.3,1.55,656.08,0.28,677.08c-0.63,10.35-0.98,10.35,8.27,10.36
		c111.98,0.13,223.96,0.08,335.93,0.47c50.42,0.17,98.76-8.69,144.81-29.66c22.05-10.04,42.33-22.84,61.68-37.24
		c5.75-4.28,12.27-7.65,16.67-13.6c1-0.54,2.16-0.89,2.97-1.64c10.88-10.02,22.02-19.76,32.28-30.44
		c11.73-12.2,22.88-24.91,33.67-37.93c1.46,1.46,1.14,3.35,1.16,5.12c0.11,12.4,0.11,24.81,0.34,37.2
		c0.1,5.43-0.56,10.89,0.58,16.28c-0.08,7-0.21,13.99-0.24,20.99c-0.07,21.83,0.12,43.66-0.34,65.48c-0.09,4.19,0.64,4.93,4.5,4.91
		c55.37-0.4,107.45-36.03,128.61-87.21c11.63-28.14,12.13-57.37,11.05-86.96c1.32-1.8,0.69-3.87,0.7-5.8
		c0.1-18.99,0.16-37.98,0.16-56.97c0-9.16,0.61-18.31-0.14-27.47c17.27-4.81,34.89-7.34,52.79-7.43
		c43.16-0.23,86.32-0.46,129.48-0.3c79.81,0.3,139.53-60.99,142.77-135.92c0.22-5.19-1.15-6.34-6.21-6.34
		c-89.15,0-178.3-0.19-267.45-0.39c-17.36-0.04-34.61,1.17-51.75,3.94c-1.31,0.57-2.64,1.02-3.99,1.4c1.35-0.38,2.69-0.83,3.99-1.4
		c0.25-11.8,0.57-23.61,0.73-35.41c0.18-13.15-0.69-26.39,0.48-39.44c2.9-32.34,29.68-56.72,62.28-57.82
		c3.28-0.11,6.67,0.61,9.84-0.83v0c1.83,0.08,3.65,0.22,5.48,0.22c65.3,0.05,130.6-0.06,195.9,0.23
		c20.79,0.09,40.48-3.54,59.65-11.83c23.8-10.3,43.29-25.57,58.35-46.54c17.22-23.99,25.52-50.87,25.67-80.36
		C1200.96,1.36,1199.92,0.61,1196.66,0.61z M628.12,347.18c-8.37,7.26-17.39,13.85-25.25,21.63c-12.49,12.35-24.24,25.43-36.3,38.21
		c-2.84,3.01-5.65,6.03-8.47,9.05c0,0,0,0,0,0c1.02-4.93-1.92-8.99-3.64-12.97c-21.3-48.96-54.72-86.83-103.5-109.76
		c-23.65-11.12-48.61-18.4-74.9-19.95c-28.74-1.69-57.53-0.55-86.3-0.82c-26.66-0.25-53.32-0.52-79.97-0.15
		c-18.7,0.26-34.93-6.14-47.22-19.35c-16.88-18.15-22.05-40.05-14.57-64.34c8.13-26.42,34.06-45.56,62.68-45.58
		c61.48-0.03,122.96,0.18,184.44,0.19c82.81,0.02,165.62-0.04,248.43-0.09c1.8,0,3.69,0.37,5.36-0.71
		c-1.43,5.61-2.77,11.25-4.31,16.84c-7.14,25.81-6.44,52.23-6.08,78.62c0.03,2.42-0.65,4.99,0.81,7.28c0,0,0,0,0,0l0.02,0.13
		c0.45,0.47,0.82,0.92,1.04,1.35c-0.22-0.43-0.59-0.88-1.04-1.35c-1.3,1.02-0.79,2.35-0.64,3.63c-0.21,1.13-0.59,2.25-0.6,3.38
		c-0.14,26.16-0.27,52.32-0.31,78.48c0,2.2-0.76,4.75,1.52,6.48c1.6,0.49,2.72-0.25,3.78-1.1c-1.05,0.85-2.18,1.58-3.77,1.1
		C636.25,341.4,631.86,343.93,628.12,347.18z M640.49,247.01c-0.02-0.05-0.04-0.1-0.07-0.15
		C640.44,246.91,640.47,246.96,640.49,247.01z M776.55,278.45c0.42-0.1,0.84-0.21,1.27-0.32
		C777.39,278.24,776.97,278.36,776.55,278.45z"/>
</g>
</svg>
