<?xml version="1.0" encoding="utf-8"?>
<!-- Generator: Adobe Illustrator 24.0.2, SVG Export Plug-In . SVG Version: 6.00 Build 0)  -->
<svg version="1.1" id="Layer_1" xmlns="http://www.w3.org/2000/svg" xmlns:xlink="http://www.w3.org/1999/xlink" x="0px" y="0px"
	 viewBox="0 0 511.9 512" style="enable-background:new 0 0 511.9 512;" xml:space="preserve">
<style type="text/css">
	.st0{fill:#FFFFFF;}
</style>
<path class="st0" d="M434.3,72.2C335.2-24,174.6-25.2,74.4,75.4C26.4,123.7-0.1,187.8-0.1,256c0,157.5,140.1,277.5,296.4,252.8
	c16.5-2.6,31.1-12.1,40.3-26c8.7-13.3,10.6-30.2,7.6-45.6c-3.2-16-12.8-29.8-21.8-43c-3.6-5.3-17.6-25.9-4.9-28.9
	c5.5-1.3,10.4-4.1,14.4-8.1c11.1-11.4,10.7-30-0.7-41.5l-11.8-11.8c4.7,2.5,22.4,3,25.3,3.3c6.7,0.7,13,0.5,19.6,2.6
	c6.5,2,12.2,5.6,19,6.6c7.8,1.2,15.9,0.2,23.7-0.8c15.9-2.1,31.8-4.1,47.8-6.2c14.2-1.8,27.9-3.1,38.8-13.5
	c11.9-11.2,18.6-27,18.4-43.4C511,186,484.6,121,434.3,72.2z M94.9,127.7c9.5-12,23.8-18.9,39.2-18.9c11.3,0,22.4,3.8,31.2,10.9
	c10.5,8.4,17.1,20.3,18.6,33.6s-2.2,26.4-10.6,36.9c-9.5,12-23.8,18.9-39.2,18.9c-11.3,0-22.3-3.8-31.2-10.9
	c-10.4-8.4-17-20.3-18.6-33.6C82.8,151.3,86.5,138.2,94.9,127.7z M104.1,340.8c-23.6,0-43.7-16-48.9-39c-3-13-0.7-26.5,6.4-37.8
	c7.1-11.3,18.2-19.2,31.3-22.2c3.7-0.9,7.5-1.3,11.2-1.3c23.6,0,43.7,16,48.9,39c3,13,0.7,26.5-6.4,37.8
	c-7.1,11.3-18.2,19.2-31.3,22.2C111.6,340.4,107.8,340.8,104.1,340.8z M233.5,417.9c-8.3,17.3-26,28.4-45.2,28.4
	c-7.5,0-14.8-1.7-21.7-5c-24.9-12-35.4-42-23.4-66.9c8.3-17.3,26-28.4,45.2-28.4c7.5,0,14.8,1.7,21.7,5c12.1,5.8,21.2,16,25.6,28.6
	C240.1,392.2,239.3,405.8,233.5,417.9z M255.8,150.6c-27.7,0-50.2-22.5-50.2-50.2c0-27.7,22.5-50.2,50.2-50.2S306,72.7,306,100.4
	C306,128,283.5,150.5,255.8,150.6z M427.3,164.6c-1.5,13.3-8.1,25.2-18.6,33.6c-8.8,7-19.9,10.9-31.2,10.9
	c-15.3,0-29.6-6.9-39.2-18.9c-8.3-10.5-12.1-23.6-10.6-36.9s8.1-25.2,18.6-33.6c8.8-7,19.9-10.9,31.2-10.9
	c15.3,0,29.6,6.9,39.2,18.9C425,138.2,428.8,151.3,427.3,164.6z"/>
</svg>
