<?xml version="1.0" encoding="utf-8"?>
<!-- Generator: Adobe Illustrator 24.1.2, SVG Export Plug-In . SVG Version: 6.00 Build 0)  -->
<svg version="1.1" id="Layer_1" xmlns="http://www.w3.org/2000/svg" xmlns:xlink="http://www.w3.org/1999/xlink" x="0px" y="0px"
	 viewBox="0 0 145.12 16.84" style="enable-background:new 0 0 145.12 16.84;" xml:space="preserve">
<style type="text/css">
	.st0{fill:#71CEE4;}
	.st1{fill:#9D7BB8;}
</style>
<g>
	<path class="st0" d="M9.8,8.47C9.33,8.18,8.81,7.95,8.24,7.78c-0.57-0.17-1.13-0.32-1.7-0.45C5.97,7.2,5.46,7.07,4.99,6.94
		c-0.47-0.13-0.85-0.3-1.13-0.52c-0.29-0.21-0.43-0.5-0.43-0.85c0-0.3,0.08-0.56,0.25-0.79c0.17-0.23,0.45-0.41,0.84-0.56
		s0.89-0.22,1.51-0.22S7.26,4.1,7.9,4.27s1.28,0.45,1.92,0.81l0.98-2.41c-0.64-0.4-1.38-0.71-2.21-0.91c-0.83-0.2-1.68-0.3-2.54-0.3
		c-1.29,0-2.36,0.19-3.22,0.58c-0.85,0.38-1.49,0.9-1.92,1.54C0.49,4.23,0.27,4.95,0.27,5.73c0,0.73,0.15,1.33,0.44,1.8
		s0.67,0.85,1.14,1.13c0.47,0.29,0.99,0.52,1.55,0.7c0.57,0.18,1.13,0.34,1.7,0.46c0.57,0.12,1.08,0.25,1.55,0.39
		c0.47,0.14,0.85,0.31,1.13,0.53c0.29,0.21,0.43,0.5,0.43,0.87c0,0.29-0.09,0.54-0.27,0.76c-0.18,0.22-0.47,0.39-0.85,0.52
		c-0.38,0.12-0.89,0.19-1.52,0.19c-0.82,0-1.63-0.13-2.43-0.4c-0.8-0.27-1.5-0.61-2.08-1.03L0,14.04c0.61,0.47,1.42,0.85,2.42,1.14
		c1,0.29,2.05,0.44,3.15,0.44c1.3,0,2.38-0.2,3.24-0.59c0.85-0.39,1.5-0.91,1.93-1.55c0.43-0.64,0.65-1.34,0.65-2.11
		c0-0.72-0.15-1.31-0.44-1.78C10.65,9.13,10.27,8.75,9.8,8.47z"/>
	<path class="st0" d="M21.97,5.21c-0.66-0.33-1.4-0.5-2.24-0.5c-0.9,0-1.7,0.19-2.41,0.57c-0.35,0.19-0.67,0.42-0.94,0.69V0.88
		h-3.05v14.51h3.05v-5.2c0-0.65,0.11-1.19,0.32-1.6c0.21-0.42,0.51-0.73,0.9-0.93c0.38-0.2,0.82-0.3,1.3-0.3
		c0.68,0,1.2,0.2,1.57,0.61s0.56,1.03,0.56,1.88v5.55h3.05V9.37c0-1.07-0.19-1.95-0.57-2.63C23.15,6.05,22.63,5.54,21.97,5.21z"/>
	<path class="st0" d="M31.09,4.71c-0.83,0-1.66,0.11-2.46,0.33c-0.81,0.22-1.5,0.53-2.07,0.94l1.09,2.13
		c0.38-0.3,0.84-0.54,1.38-0.71c0.54-0.18,1.09-0.26,1.65-0.26c0.82,0,1.43,0.18,1.83,0.55c0.4,0.37,0.6,0.87,0.6,1.53h-2.42
		c-1.07,0-1.94,0.13-2.6,0.4c-0.66,0.27-1.15,0.64-1.46,1.11c-0.31,0.47-0.46,1.02-0.46,1.64c0,0.6,0.16,1.14,0.47,1.62
		c0.31,0.48,0.76,0.86,1.35,1.14c0.59,0.28,1.29,0.42,2.11,0.42c0.93,0,1.68-0.18,2.27-0.53c0.4-0.24,0.71-0.56,0.94-0.95v1.33h2.85
		v-6c0-1.6-0.44-2.78-1.33-3.54C33.94,5.09,32.69,4.71,31.09,4.71z M32.23,13.13c-0.4,0.24-0.86,0.36-1.37,0.36
		c-0.53,0-0.96-0.11-1.26-0.34c-0.31-0.23-0.46-0.54-0.46-0.93c0-0.35,0.13-0.64,0.4-0.88c0.27-0.23,0.76-0.35,1.48-0.35h2.09v1.08
		C32.92,12.53,32.63,12.89,32.23,13.13z"/>
	<path class="st0" d="M46.66,5.97c-0.24-0.27-0.51-0.5-0.82-0.68c-0.67-0.39-1.44-0.59-2.33-0.59c-0.99,0-1.88,0.22-2.68,0.67
		c-0.8,0.44-1.42,1.07-1.89,1.88s-0.69,1.77-0.69,2.87c0,1.09,0.23,2.05,0.69,2.85c0.46,0.81,1.09,1.44,1.89,1.89
		c0.79,0.45,1.69,0.67,2.68,0.67c0.93,0,1.72-0.2,2.38-0.59c0.35-0.21,0.65-0.47,0.91-0.79v1.22h2.91V0.88h-3.05V5.97z M46.35,11.68
		c-0.24,0.44-0.56,0.77-0.97,1.01c-0.4,0.23-0.85,0.35-1.35,0.35c-0.51,0-0.96-0.12-1.37-0.35s-0.73-0.57-0.97-1.01
		s-0.36-0.96-0.36-1.55c0-0.61,0.12-1.13,0.36-1.56c0.24-0.43,0.56-0.76,0.97-1s0.86-0.35,1.37-0.35c0.5,0,0.94,0.12,1.35,0.35
		c0.4,0.23,0.73,0.57,0.97,1c0.24,0.43,0.36,0.95,0.36,1.56C46.71,10.73,46.59,11.25,46.35,11.68z"/>
	<rect x="52.52" y="4.87" class="st0" width="3.05" height="10.52"/>
	<path class="st0" d="M54.05,0c-0.56,0-1.02,0.16-1.37,0.49c-0.35,0.33-0.53,0.73-0.53,1.21s0.18,0.89,0.53,1.21
		s0.81,0.49,1.37,0.49c0.57,0,1.03-0.17,1.38-0.5c0.35-0.33,0.52-0.75,0.52-1.26c0-0.48-0.18-0.88-0.53-1.18
		C55.06,0.15,54.61,0,54.05,0z"/>
	<polygon class="st0" points="58.62,15.39 61.79,15.39 61.79,10.4 68.13,10.4 68.13,7.86 61.79,7.86 61.79,4.24 68.97,4.24 
		68.97,1.7 58.62,1.7 	"/>
	<path class="st0" d="M74.85,4.71c-0.84,0-1.66,0.11-2.46,0.33c-0.81,0.22-1.5,0.53-2.07,0.94l1.09,2.13
		c0.38-0.3,0.84-0.54,1.38-0.71c0.54-0.18,1.09-0.26,1.65-0.26c0.82,0,1.43,0.18,1.83,0.55c0.4,0.37,0.6,0.87,0.6,1.53h-2.43
		c-1.07,0-1.94,0.13-2.6,0.4c-0.67,0.27-1.15,0.64-1.46,1.11c-0.31,0.47-0.46,1.02-0.46,1.64c0,0.6,0.16,1.14,0.47,1.62
		c0.31,0.48,0.76,0.86,1.35,1.14c0.59,0.28,1.29,0.42,2.11,0.42c0.93,0,1.68-0.18,2.27-0.53c0.4-0.24,0.71-0.56,0.94-0.95v1.32h2.86
		v-6c0-1.6-0.44-2.78-1.33-3.54C77.7,5.09,76.46,4.71,74.85,4.71z M75.99,13.13c-0.4,0.24-0.86,0.36-1.37,0.36
		c-0.54,0-0.96-0.11-1.26-0.34c-0.31-0.23-0.46-0.54-0.46-0.93c0-0.35,0.13-0.64,0.4-0.88c0.27-0.23,0.76-0.35,1.48-0.35h2.09v1.08
		C76.68,12.53,76.39,12.89,75.99,13.13z"/>
	<path class="st0" d="M85.59,6.27v-1.4h-2.91v10.52h3.05v-4.97c0-1,0.26-1.74,0.77-2.22c0.52-0.48,1.19-0.71,2.02-0.71
		c0.12,0,0.23,0,0.33,0.01c0.1,0.01,0.22,0.02,0.35,0.03V4.71c-0.99,0-1.83,0.19-2.52,0.58C86.24,5.54,85.88,5.87,85.59,6.27z"/>
	<path class="st0" d="M99.66,5.21c-0.66-0.33-1.4-0.5-2.24-0.5c-0.9,0-1.7,0.19-2.4,0.57c-0.35,0.19-0.67,0.42-0.94,0.7v-5.1h-3.05
		v14.51h3.05v-5.2c0-0.65,0.11-1.19,0.32-1.6s0.51-0.73,0.9-0.93c0.38-0.2,0.82-0.3,1.3-0.3c0.68,0,1.2,0.2,1.57,0.61
		c0.37,0.4,0.56,1.03,0.56,1.88v5.55h3.05V9.37c0-1.07-0.19-1.95-0.57-2.63S100.32,5.54,99.66,5.21z"/>
	<path class="st0" d="M108.78,4.71c-0.83,0-1.66,0.11-2.46,0.33c-0.81,0.22-1.5,0.53-2.07,0.94l1.1,2.13
		c0.38-0.3,0.84-0.54,1.38-0.71c0.54-0.18,1.09-0.26,1.65-0.26c0.82,0,1.43,0.18,1.83,0.55c0.4,0.37,0.6,0.87,0.6,1.53h-2.42
		c-1.07,0-1.94,0.13-2.6,0.4c-0.67,0.27-1.15,0.64-1.46,1.11c-0.31,0.47-0.46,1.02-0.46,1.64c0,0.6,0.16,1.14,0.47,1.62
		c0.31,0.48,0.76,0.86,1.35,1.14s1.29,0.42,2.11,0.42c0.92,0,1.68-0.18,2.27-0.53c0.4-0.24,0.71-0.56,0.94-0.95v1.33h2.85v-6
		c0-1.6-0.44-2.78-1.33-3.54C111.63,5.09,110.38,4.71,108.78,4.71z M109.91,13.13c-0.4,0.24-0.86,0.36-1.37,0.36
		c-0.54,0-0.96-0.11-1.26-0.34c-0.31-0.23-0.46-0.54-0.46-0.93c0-0.35,0.13-0.64,0.4-0.88c0.27-0.23,0.76-0.35,1.48-0.35h2.09v1.08
		C110.61,12.53,110.32,12.89,109.91,13.13z"/>
	<path class="st0" d="M122.57,12.73c-0.34,0.26-0.75,0.39-1.23,0.39c-0.4,0-0.72-0.12-0.96-0.36c-0.23-0.24-0.35-0.58-0.35-1.03
		V7.45h2.62V5.1h-2.62V2.54h-3.05V5.1h-1.62v2.35h1.62v4.32c0,1.25,0.35,2.19,1.04,2.83c0.69,0.63,1.66,0.95,2.89,0.95
		c0.47,0,0.92-0.06,1.36-0.17c0.44-0.11,0.81-0.28,1.12-0.5L122.57,12.73z"/>
</g>
<path d="M131.79,15.54c-0.52,0-0.97-0.18-1.34-0.54c-0.37-0.36-0.56-0.82-0.56-1.38s0.19-1.01,0.56-1.36
	c0.37-0.34,0.82-0.52,1.34-0.52c0.53,0,0.98,0.17,1.35,0.52c0.36,0.35,0.55,0.8,0.55,1.36s-0.18,1.02-0.55,1.38
	C132.78,15.37,132.33,15.54,131.79,15.54z"/>
<path class="st1" d="M135.34,16.84v-1.76h9.78v1.76H135.34z"/>
</svg>
