<?xml version="1.0" encoding="utf-8"?>
<!-- Generator: Adobe Illustrator 24.1.2, SVG Export Plug-In . SVG Version: 6.00 Build 0)  -->
<svg version="1.1" id="Layer_1" xmlns="http://www.w3.org/2000/svg" xmlns:xlink="http://www.w3.org/1999/xlink" x="0px" y="0px"
	 viewBox="0 0 145.1 16.8" style="enable-background:new 0 0 145.1 16.8;" xml:space="preserve">
<style type="text/css">
	.st0{fill:#71CEE4;}
	.st1{fill:#FFFFFF;}
	.st2{fill:#9D7BB8;}
</style>
<g>
	<path class="st0" d="M9.8,8.5c-0.5-0.3-1-0.5-1.6-0.7C7.7,7.6,7.1,7.5,6.5,7.3C6,7.2,5.5,7.1,5,6.9C4.5,6.8,4.1,6.6,3.9,6.4
		C3.6,6.2,3.4,5.9,3.4,5.6c0-0.3,0.1-0.6,0.3-0.8s0.5-0.4,0.8-0.6S5.4,4,6,4s1.2,0.1,1.9,0.3s1.3,0.4,1.9,0.8l1-2.4
		C10.2,2.3,9.4,2,8.6,1.8S6.9,1.5,6,1.5C4.8,1.5,3.7,1.6,2.8,2C2,2.4,1.3,2.9,0.9,3.6C0.5,4.2,0.3,4.9,0.3,5.7
		c0,0.7,0.2,1.3,0.4,1.8s0.7,0.9,1.1,1.1c0.5,0.3,1,0.5,1.6,0.7C4,9.5,4.5,9.7,5.1,9.8s1.1,0.3,1.6,0.4c0.5,0.1,0.8,0.3,1.1,0.5
		c0.3,0.2,0.4,0.5,0.4,0.9c0,0.3-0.1,0.5-0.3,0.8s-0.5,0.4-0.8,0.5c-0.4,0.1-0.9,0.2-1.5,0.2c-0.8,0-1.6-0.1-2.4-0.4
		c-0.8-0.3-1.5-0.6-2.1-1L0,14c0.6,0.5,1.4,0.9,2.4,1.1s2.1,0.4,3.2,0.4c1.3,0,2.4-0.2,3.2-0.6c0.9-0.4,1.5-0.9,1.9-1.6
		s0.6-1.3,0.6-2.1c0-0.7-0.1-1.3-0.4-1.8C10.6,9.1,10.3,8.8,9.8,8.5z"/>
	<path class="st0" d="M22,5.2c-0.7-0.3-1.4-0.5-2.2-0.5c-0.9,0-1.7,0.2-2.4,0.6C17,5.5,16.6,5.7,16.4,6V0.9h-3.1v14.5h3.1v-5.2
		c0-0.6,0.1-1.2,0.3-1.6c0.2-0.4,0.5-0.7,0.9-0.9c0.4-0.2,0.8-0.3,1.3-0.3c0.7,0,1.2,0.2,1.6,0.6C20.8,8.4,21,9,21,9.9v5.6h3v-6
		c0-1.1-0.2-1.9-0.6-2.6C23.1,6.1,22.6,5.5,22,5.2z"/>
	<path class="st0" d="M31.1,4.7c-0.8,0-1.7,0.1-2.5,0.3c-0.8,0.2-1.5,0.5-2.1,0.9l1.1,2.1C28,7.8,28.5,7.6,29,7.4
		c0.5-0.2,1.1-0.3,1.6-0.3c0.8,0,1.4,0.2,1.8,0.6c0.4,0.4,0.6,0.9,0.6,1.5h-2.4c-1.1,0-1.9,0.1-2.6,0.4c-0.7,0.3-1.1,0.6-1.5,1.1
		c-0.3,0.5-0.5,1-0.5,1.6c0,0.6,0.2,1.1,0.5,1.6s0.8,0.9,1.4,1.1c0.6,0.3,1.3,0.4,2.1,0.4c0.9,0,1.7-0.2,2.3-0.5
		c0.4-0.2,0.7-0.6,0.9-0.9v1.3h2.8v-6c0-1.6-0.4-2.8-1.3-3.5C33.9,5.1,32.7,4.7,31.1,4.7z M32.2,13.1c-0.4,0.2-0.9,0.4-1.4,0.4
		c-0.5,0-1-0.1-1.3-0.3c-0.3-0.2-0.5-0.5-0.5-0.9c0-0.4,0.1-0.6,0.4-0.9c0.3-0.2,0.8-0.4,1.5-0.4h2.1v1.1
		C32.9,12.5,32.6,12.9,32.2,13.1z"/>
	<path class="st0" d="M46.7,6c-0.2-0.3-0.5-0.5-0.8-0.7c-0.7-0.4-1.4-0.6-2.3-0.6c-1,0-1.9,0.2-2.7,0.7c-0.8,0.4-1.4,1.1-1.9,1.9
		s-0.7,1.8-0.7,2.9c0,1.1,0.2,2.1,0.7,2.8c0.5,0.8,1.1,1.4,1.9,1.9c0.8,0.4,1.7,0.7,2.7,0.7c0.9,0,1.7-0.2,2.4-0.6
		c0.3-0.2,0.7-0.5,0.9-0.8v1.2h2.9V0.9h-3C46.7,0.9,46.7,6,46.7,6z M46.3,11.7c-0.2,0.4-0.6,0.8-1,1C45,12.9,44.5,13,44,13
		c-0.5,0-1-0.1-1.4-0.4s-0.7-0.6-1-1s-0.4-1-0.4-1.6c0-0.6,0.1-1.1,0.4-1.6s0.6-0.8,1-1s0.9-0.3,1.4-0.3c0.5,0,0.9,0.1,1.3,0.3
		c0.4,0.2,0.7,0.6,1,1s0.4,0.9,0.4,1.6C46.7,10.7,46.6,11.3,46.3,11.7z"/>
	<rect x="52.5" y="4.9" class="st0" width="3" height="10.5"/>
	<path class="st0" d="M54,0c-0.6,0-1,0.2-1.4,0.5s-0.5,0.7-0.5,1.2s0.2,0.9,0.5,1.2s0.8,0.5,1.4,0.5c0.6,0,1-0.2,1.4-0.5
		C55.8,2.6,56,2.2,56,1.6c0-0.5-0.2-0.9-0.5-1.2C55.1,0.2,54.6,0,54,0z"/>
	<polygon class="st0" points="58.6,15.4 61.8,15.4 61.8,10.4 68.1,10.4 68.1,7.9 61.8,7.9 61.8,4.2 69,4.2 69,1.7 58.6,1.7 	"/>
	<path class="st0" d="M74.8,4.7c-0.8,0-1.7,0.1-2.5,0.3c-0.8,0.2-1.5,0.5-2.1,0.9l1.1,2.1c0.4-0.3,0.8-0.5,1.4-0.7
		c0.5-0.2,1.1-0.3,1.7-0.3c0.8,0,1.4,0.2,1.8,0.6c0.4,0.4,0.6,0.9,0.6,1.5h-2.4c-1.1,0-1.9,0.1-2.6,0.4c-0.7,0.3-1.2,0.6-1.5,1.1
		c-0.3,0.5-0.5,1-0.5,1.6c0,0.6,0.2,1.1,0.5,1.6s0.8,0.9,1.3,1.1c0.6,0.3,1.3,0.4,2.1,0.4c0.9,0,1.7-0.2,2.3-0.5
		c0.4-0.2,0.7-0.6,0.9-0.9v1.3h2.9v-6c0-1.6-0.4-2.8-1.3-3.5S76.5,4.7,74.8,4.7z M76,13.1c-0.4,0.2-0.9,0.4-1.4,0.4
		c-0.5,0-1-0.1-1.3-0.3c-0.3-0.2-0.5-0.5-0.5-0.9c0-0.4,0.1-0.6,0.4-0.9c0.3-0.2,0.8-0.4,1.5-0.4h2.1v1.1
		C76.7,12.5,76.4,12.9,76,13.1z"/>
	<path class="st0" d="M85.6,6.3V4.9h-2.9v10.5h3.1v-5c0-1,0.3-1.7,0.8-2.2c0.5-0.5,1.2-0.7,2-0.7c0.1,0,0.2,0,0.3,0s0.2,0,0.3,0V4.7
		c-1,0-1.8,0.2-2.5,0.6C86.2,5.5,85.9,5.9,85.6,6.3z"/>
	<path class="st0" d="M99.7,5.2c-0.7-0.3-1.4-0.5-2.2-0.5c-0.9,0-1.7,0.2-2.4,0.6c-0.3,0.2-0.7,0.4-0.9,0.7V0.9H91v14.5h3.1v-5.2
		c0-0.6,0.1-1.2,0.3-1.6s0.5-0.7,0.9-0.9c0.4-0.2,0.8-0.3,1.3-0.3c0.7,0,1.2,0.2,1.6,0.6c0.4,0.4,0.6,1,0.6,1.9v5.6h3.1v-6
		c0-1.1-0.2-1.9-0.6-2.6S100.3,5.5,99.7,5.2z"/>
	<path class="st0" d="M108.8,4.7c-0.8,0-1.7,0.1-2.5,0.3c-0.8,0.2-1.5,0.5-2.1,0.9l1.1,2.1c0.4-0.3,0.8-0.5,1.4-0.7
		c0.5-0.2,1.1-0.3,1.7-0.3c0.8,0,1.4,0.2,1.8,0.6c0.4,0.4,0.6,0.9,0.6,1.5h-2.4c-1.1,0-1.9,0.1-2.6,0.4c-0.7,0.3-1.2,0.6-1.5,1.1
		c-0.3,0.5-0.5,1-0.5,1.6c0,0.6,0.2,1.1,0.5,1.6s0.8,0.9,1.3,1.1s1.3,0.4,2.1,0.4c0.9,0,1.7-0.2,2.3-0.5c0.4-0.2,0.7-0.6,0.9-0.9
		v1.3h2.8v-6c0-1.6-0.4-2.8-1.3-3.5C111.6,5.1,110.4,4.7,108.8,4.7z M109.9,13.1c-0.4,0.2-0.9,0.4-1.4,0.4c-0.5,0-1-0.1-1.3-0.3
		c-0.3-0.2-0.5-0.5-0.5-0.9c0-0.4,0.1-0.6,0.4-0.9c0.3-0.2,0.8-0.4,1.5-0.4h2.1v1.1C110.6,12.5,110.3,12.9,109.9,13.1z"/>
	<path class="st0" d="M122.6,12.7c-0.3,0.3-0.8,0.4-1.2,0.4c-0.4,0-0.7-0.1-1-0.4c-0.2-0.2-0.3-0.6-0.3-1V7.4h2.6V5.1H120V2.5H117
		v2.6h-1.6v2.3h1.6v4.3c0,1.3,0.3,2.2,1,2.8c0.7,0.6,1.7,0.9,2.9,0.9c0.5,0,0.9-0.1,1.4-0.2s0.8-0.3,1.1-0.5L122.6,12.7z"/>
</g>
<path class="st1" d="M131.8,15.5c-0.5,0-1-0.2-1.3-0.5s-0.6-0.8-0.6-1.4s0.2-1,0.6-1.4c0.4-0.3,0.8-0.5,1.3-0.5c0.5,0,1,0.2,1.4,0.5
	c0.4,0.4,0.6,0.8,0.6,1.4s-0.2,1-0.6,1.4C132.8,15.4,132.3,15.5,131.8,15.5z"/>
<path class="st2" d="M135.3,16.8v-1.8h9.8v1.8H135.3z"/>
</svg>
